<?xml version="1.0" standalone="no"?>
<!DOCTYPE svg PUBLIC "-//W3C//DTD SVG 20010904//EN"
 "http://www.w3.org/TR/2001/REC-SVG-20010904/DTD/svg10.dtd">
<svg version="1.0" xmlns="http://www.w3.org/2000/svg"
 width="24.000000pt" height="24.000000pt" viewBox="0 0 24.000000 24.000000"
 preserveAspectRatio="xMidYMid meet">

<g transform="translate(0.000000,24.000000) scale(0.100000,-0.100000)"
fill="#000000" stroke="none">
<path d="M146 160 l-53 -50 -23 25 c-27 29 -42 31 -61 9 -11 -13 -5 -23 39
-67 l52 -52 70 71 c49 49 69 75 65 86 -13 34 -36 28 -89 -22z m16 -53 l-62
-62 -41 42 c-25 25 -39 46 -34 53 5 8 18 2 41 -21 l34 -33 52 52 c35 34 56 48
62 42 7 -7 -10 -31 -52 -73z"/>
</g>
</svg>
