<?xml version="1.0" standalone="no"?>
<!DOCTYPE svg PUBLIC "-//W3C//DTD SVG 20010904//EN"
 "http://www.w3.org/TR/2001/REC-SVG-20010904/DTD/svg10.dtd">
<svg version="1.0" xmlns="http://www.w3.org/2000/svg"
 width="24.000000pt" height="24.000000pt" viewBox="0 0 24.000000 24.000000"
 preserveAspectRatio="xMidYMid meet">

<g transform="translate(0.000000,24.000000) scale(0.100000,-0.100000)"
fill="#000000" stroke="none">
<path d="M87 226 c-3 -8 -16 -16 -29 -18 -18 -2 -22 -8 -20 -28 2 -14 6 -54
10 -90 4 -36 11 -71 15 -78 11 -16 103 -16 114 1 4 6 11 41 15 77 4 36 8 76
10 90 2 20 -2 26 -20 28 -13 2 -26 10 -29 18 -3 8 -18 14 -33 14 -15 0 -30 -6
-33 -14z m48 -6 c3 -5 -3 -10 -15 -10 -12 0 -18 5 -15 10 3 6 10 10 15 10 5 0
12 -4 15 -10z m55 -30 c0 -6 -30 -10 -70 -10 -40 0 -70 4 -70 10 0 6 30 10 70
10 40 0 70 -4 70 -10z m-11 -62 c-1 -24 -5 -54 -10 -68 -6 -18 -8 -10 -5 33 1
31 -1 57 -6 57 -4 0 -8 -19 -8 -42 0 -24 -5 -50 -10 -58 -7 -11 -10 2 -10 43
0 31 -4 57 -10 57 -5 0 -10 -26 -10 -57 0 -41 -3 -54 -10 -43 -5 8 -10 34 -10
58 0 23 -4 42 -8 42 -5 0 -7 -26 -6 -57 3 -43 1 -51 -5 -33 -5 14 -9 44 -10
68 l-1 42 60 0 60 0 -1 -42z m-14 -108 c-8 -13 -82 -13 -90 0 -4 6 13 10 45
10 32 0 49 -4 45 -10z"/>
</g>
</svg>
