<svg id="Layer_1" enable-background="new 0 0 256 256" height="70" viewBox="0 0 256 256"
                                    width="70" xmlns="http://www.w3.org/2000/svg">
                                    <g>
                                        <circle cx="203.996" cy="219.267" fill="#9e9e9e" r="15.372" />
                                        <g>
                                            <path
                                                d="m203.996 203.894c-1.85 0-3.615.344-5.257.942 5.896 2.15 10.115 7.79 10.115 14.43s-4.218 12.28-10.115 14.43c1.642.599 3.408.942 5.257.942 8.49 0 15.372-6.882 15.372-15.372.001-8.489-6.882-15.372-15.372-15.372z"
                                                fill="#cecece" />
                                        </g>
                                        <path d="m68.983 93.472h163.901v55.7l-138.075 24.713z" fill="#63bce7" />
                                        <g>
                                            <path d="m232.884 93.472h-10.515v57.582l10.515-1.882z" fill="#67dceb" />
                                        </g>
                                        <g>
                                            <path d="m68.983 93.472 25.826 80.413 9.943-1.78-25.254-78.633z"
                                                fill="#6377e7" />
                                        </g>
                                        <circle cx="109.746" cy="219.267" fill="#9e9e9e" r="15.372" />
                                        <g>
                                            <path
                                                d="m104.888 219.267c0-6.64 4.218-12.28 10.115-14.43-1.643-.599-3.408-.942-5.258-.942-8.49 0-15.372 6.883-15.372 15.372 0 8.49 6.882 15.372 15.372 15.372 1.85 0 3.615-.344 5.258-.942-5.896-2.15-10.115-7.79-10.115-14.43z"
                                                fill="#707070" />
                                        </g>
                                        <path d="m106.385 34.774h89.097v58.698h-89.097z" fill="#f46275" />
                                        <g>
                                            <path d="m184.967 34.774h10.515v58.698h-10.515z" fill="#f48875" />
                                        </g>
                                        <g>
                                            <path d="m106.385 34.774h10.515v58.698h-10.515z" fill="#f43075" />
                                        </g>
                                        <path
                                            d="m157.41 13.599 8.259-3.397c5.141-2.115 10.783 1.665 10.783 7.224v3.528h-25.518v-5.063z"
                                            fill="#f8af23" />
                                        <g fill="#f8af23">
                                            <path d="m174.84 34.774h9.138v58.698h-9.138z" />
                                            <path d="m117.889 34.774h9.138v58.698h-9.138z" />
                                        </g>
                                        <path
                                            d="m194.914 34.774h-87.96c-2.761 0-5-2.239-5-5v-3.819c0-2.761 2.239-5 5-5h87.96c2.761 0 5 2.239 5 5v3.819c0 2.761-2.239 5-5 5z"
                                            fill="#63bce7" />
                                        <g>
                                            <path
                                                d="m194.914 20.954h-10.515c2.761 0 5 2.239 5 5v3.819c0 2.761-2.239 5-5 5h10.515c2.761 0 5-2.239 5-5v-3.819c0-2.761-2.239-5-5-5z"
                                                fill="#67dceb" />
                                        </g>
                                        <g>
                                            <path
                                                d="m112.468 29.774v-3.819c0-2.761 2.239-5 5-5h-10.515c-2.761 0-5 2.239-5 5v3.819c0 2.761 2.239 5 5 5h10.515c-2.761 0-5-2.239-5-5z"
                                                fill="#6377e7" />
                                        </g>
                                        <path
                                            d="m144.457 13.599-8.259-3.397c-5.141-2.115-10.783 1.665-10.783 7.224v3.528h25.518v-5.063z"
                                            fill="#f8af23" />
                                        <g>
                                            <path
                                                d="m138.898 11.313-2.7-1.111c-5.141-2.115-10.783 1.665-10.783 7.224v3.528h10.515v-3.528c.001-2.546 1.191-4.709 2.968-6.113z"
                                                fill="#f87023" />
                                        </g>
                                        <g>
                                            <path
                                                d="m162.969 11.313 2.7-1.111c5.141-2.115 10.783 1.665 10.783 7.224v3.528h-10.515v-3.528c-.001-2.546-1.191-4.709-2.968-6.113z"
                                                fill="#f8d323" />
                                        </g>
                                        <path
                                            d="m152.933 10.829h-3.998c-2.462 0-4.477 2.015-4.477 4.477v1.171c0 2.462 2.015 4.477 4.477 4.477h3.998c2.462 0 4.477-2.015 4.477-4.477v-1.171c0-2.462-2.015-4.477-4.477-4.477z"
                                            fill="#63bce7" />
                                        <path
                                            d="m49.734 72.52h-19.604c-3.363 0-6.114-2.751-6.114-6.114 0-3.363 2.751-6.114 6.114-6.114h19.605c3.363 0 6.114 2.751 6.114 6.114 0 3.363-2.752 6.114-6.115 6.114z"
                                            fill="#9e9e9e" />
                                        <g>
                                            <path
                                                d="m34.53 66.406c0-3.363 2.751-6.114 6.114-6.114h-10.514c-3.363 0-6.114 2.751-6.114 6.114s2.751 6.114 6.114 6.114h10.515c-3.363 0-6.115-2.751-6.115-6.114z"
                                                fill="#707070" />
                                        </g>
                                        <g fill="#3f3679">
                                            <path
                                                d="m25.89 244.893h-18.5c-.828 0-1.5.671-1.5 1.5s.672 1.5 1.5 1.5h18.5c.828 0 1.5-.671 1.5-1.5s-.672-1.5-1.5-1.5z" />
                                            <path
                                                d="m248.61 244.893h-18.5c-.828 0-1.5.671-1.5 1.5s.672 1.5 1.5 1.5h18.5c.828 0 1.5-.671 1.5-1.5s-.672-1.5-1.5-1.5z" />
                                            <path
                                                d="m215.337 244.893h-174.674c-.828 0-1.5.671-1.5 1.5s.672 1.5 1.5 1.5h174.674c.828 0 1.5-.671 1.5-1.5s-.672-1.5-1.5-1.5z" />
                                            <path
                                                d="m7.39 236.139h7.943c.828 0 1.5-.671 1.5-1.5s-.672-1.5-1.5-1.5h-7.943c-.828 0-1.5.671-1.5 1.5s.672 1.5 1.5 1.5z" />
                                            <path
                                                d="m240.667 236.139h7.943c.828 0 1.5-.671 1.5-1.5s-.672-1.5-1.5-1.5h-7.943c-.828 0-1.5.671-1.5 1.5s.672 1.5 1.5 1.5z" />
                                            <path
                                                d="m183.979 29.364h7.873c.828 0 1.5-.671 1.5-1.5s-.672-1.5-1.5-1.5h-7.873c-.828 0-1.5.671-1.5 1.5s.671 1.5 1.5 1.5z" />
                                            <path
                                                d="m23.116 130.674h56.24l3.357 10.451h-25.889c-.828 0-1.5.671-1.5 1.5s.672 1.5 1.5 1.5h26.852l3.357 10.451h-50.084c-.828 0-1.5.671-1.5 1.5s.672 1.5 1.5 1.5h51c.016 0 .03-.004.045-.005l4.975 15.49c-3.952 1.917-15.351 8.767-15.351 23.967v6.867c0 .829.672 1.5 1.5 1.5h21.046c-4.4 3.048-7.292 8.126-7.292 13.872s2.892 10.824 7.292 13.873h-74.274c-.828 0-1.5.671-1.5 1.5s.672 1.5 1.5 1.5h204.22c.828 0 1.5-.671 1.5-1.5s-.672-1.5-1.5-1.5h-16.534c4.4-3.048 7.293-8.126 7.293-13.873 0-5.746-2.892-10.824-7.293-13.872h19.307c.828 0 1.5-.671 1.5-1.5s-.672-1.5-1.5-1.5h-152.264v-5.367c0-15.603 13.15-21.132 14.59-21.691l137.939-24.688c.715-.128 1.235-.75 1.235-1.477v-55.7c0-.829-.672-1.5-1.5-1.5h-35.902v-56.041c2.572-.867 4.432-3.296 4.432-6.157v-3.819c0-3.584-2.916-6.5-6.5-6.5h-16.962v-2.028c0-3.112-1.544-6.004-4.129-7.736-2.584-1.731-5.847-2.058-8.724-.875l-7.317 3.01c-1.086-1.508-2.853-2.496-4.849-2.496h-3.998c-1.996 0-3.763.988-4.849 2.496l-7.317-3.01c-2.875-1.183-6.139-.856-8.725.875-2.585 1.732-4.129 4.624-4.129 7.736v2.028h-16.962c-3.584 0-6.5 2.916-6.5 6.5v3.819c0 2.86 1.86 5.29 4.432 6.157v56.041h-34.808l-8.358-26.024c-.199-.621-.776-1.042-1.428-1.042h-3.091c-.699-3.483-3.779-6.115-7.464-6.115h-19.605c-4.198 0-7.614 3.416-7.614 7.615s3.416 7.614 7.614 7.614h19.604c3.685 0 6.766-2.632 7.464-6.114h1.998l19.196 59.768h-55.276c-.828 0-1.5.671-1.5 1.5s.672 1.5 1.5 1.5zm72.757 88.593c0-7.649 6.223-13.872 13.872-13.872s13.873 6.223 13.873 13.872-6.224 13.873-13.873 13.873-13.872-6.224-13.872-13.873zm121.996 0c0 7.649-6.224 13.873-13.873 13.873s-13.872-6.223-13.872-13.873c0-7.649 6.223-13.872 13.872-13.872s13.873 6.223 13.873 13.872zm-23.453-13.872c-4.4 3.048-7.292 8.126-7.292 13.872s2.892 10.824 7.292 13.873h-75.09c4.4-3.048 7.293-8.126 7.293-13.873 0-5.746-2.892-10.824-7.293-13.872zm-144.682-134.374h-19.604c-2.544 0-4.614-2.07-4.614-4.614s2.07-4.615 4.614-4.615h19.604c2.544 0 4.614 2.07 4.614 4.615s-2.07 4.614-4.614 4.614zm69.655-34.747h6.139v55.698h-6.139zm53.951 0v55.698h-44.812v-55.698zm25.982 58.698v58.684l-37.113 6.643v-65.327h12.631 9.139 11.503zm-16.843-3h-6.139v-55.698h6.139zm-55.452 3h32.182v65.863l-37.112 6.642v-72.505zm104.357 52.945-29.062 5.201v-58.146h29.062zm-45.905-55.945v-55.698h8.503v55.698zm-19.24-80.383c1.981-.813 4.137-.599 5.913.593 1.778 1.191 2.799 3.103 2.799 5.244v2.028h-16.843c.507-.878.802-1.893.802-2.978v-1.17c0-.232-.017-.46-.042-.685zm-17.304.74h3.998c1.642 0 2.978 1.336 2.978 2.978v1.17c0 1.642-1.336 2.978-2.978 2.978h-1.999-1.999c-1.642 0-2.978-1.336-2.978-2.978v-1.17c0-1.642 1.336-2.978 2.978-2.978zm-22.02 5.097c0-2.141 1.021-4.052 2.799-5.244 1.778-1.191 3.933-1.408 5.914-.593l7.371 3.032c-.026.225-.042.453-.042.685v1.17c0 1.084.295 2.1.802 2.978h-16.844zm-23.462 12.348v-.41h71.387c.828 0 1.5-.671 1.5-1.5s-.672-1.5-1.5-1.5h-71.387v-.41c0-1.93 1.57-3.5 3.5-3.5h18.462 23.52 1.999 1.999 23.519 18.462c1.93 0 3.5 1.57 3.5 3.5v3.819c0 1.93-1.57 3.5-3.5 3.5h-10.935-9.139-47.812-9.139-10.936c-1.93.001-3.5-1.569-3.5-3.499zm4.432 6.5h8.504v55.698h-8.504zm-1.5 58.698h11.504 1.208v73.042l-23.26 4.163-24.796-77.205z" />
                                            <path
                                                d="m48.783 144.125c.828 0 1.5-.671 1.5-1.5s-.672-1.5-1.5-1.5h-14.167c-.828 0-1.5.671-1.5 1.5s.672 1.5 1.5 1.5z" />
                                            <path
                                                d="m23.116 157.576h7.667c.828 0 1.5-.671 1.5-1.5s-.672-1.5-1.5-1.5h-7.667c-.828 0-1.5.671-1.5 1.5s.672 1.5 1.5 1.5z" />
                                        </g>
                                    </g>
                                </svg>